<svg width="150" height="51" viewBox="0 0 150 51" fill="none" xmlns="http://www.w3.org/2000/svg">
<path d="M8.45599 50.9518C5.89598 50.9518 3.94398 50.2318 2.59998 48.7918C1.25598 47.3198 0.583984 45.2238 0.583984 42.5038V24.8398C0.583984 22.1198 1.25598 20.0398 2.59998 18.5998C3.94398 17.1278 5.89598 16.3918 8.45599 16.3918C11.016 16.3918 12.968 17.1278 14.312 18.5998C15.656 20.0398 16.328 22.1198 16.328 24.8398V27.7198H11.336V24.5038C11.336 22.2958 10.424 21.1918 8.59998 21.1918C6.77598 21.1918 5.86398 22.2958 5.86398 24.5038V42.8878C5.86398 45.0638 6.77598 46.1518 8.59998 46.1518C10.424 46.1518 11.336 45.0638 11.336 42.8878V36.3118H8.69598V31.5118H16.328V42.5038C16.328 45.2238 15.656 47.3198 14.312 48.7918C12.968 50.2318 11.016 50.9518 8.45599 50.9518Z" fill="black"/>
<path d="M18.758 16.8718H33.158V21.6718H24.038V30.5518H31.286V35.3518H24.038V45.6718H33.158V50.4718H18.758V16.8718Z" fill="black"/>
<path d="M42.8675 50.9518C40.2755 50.9518 38.2915 50.2158 36.9155 48.7438C35.5395 47.2718 34.8515 45.1918 34.8515 42.5038V24.8398C34.8515 22.1518 35.5395 20.0718 36.9155 18.5998C38.2915 17.1278 40.2755 16.3918 42.8675 16.3918C45.4595 16.3918 47.4435 17.1278 48.8195 18.5998C50.1955 20.0718 50.8835 22.1518 50.8835 24.8398V42.5038C50.8835 45.1918 50.1955 47.2718 48.8195 48.7438C47.4435 50.2158 45.4595 50.9518 42.8675 50.9518ZM42.8675 46.1518C44.6915 46.1518 45.6035 45.0478 45.6035 42.8398V24.5038C45.6035 22.2958 44.6915 21.1918 42.8675 21.1918C41.0435 21.1918 40.1315 22.2958 40.1315 24.5038V42.8398C40.1315 45.0478 41.0435 46.1518 42.8675 46.1518Z" fill="black"/>
<path d="M60.9822 50.9518C58.4222 50.9518 56.4702 50.2318 55.1262 48.7918C53.7822 47.3198 53.1102 45.2238 53.1102 42.5038V24.8398C53.1102 22.1198 53.7822 20.0398 55.1262 18.5998C56.4702 17.1278 58.4222 16.3918 60.9822 16.3918C63.5422 16.3918 65.4942 17.1278 66.8382 18.5998C68.1822 20.0398 68.8542 22.1198 68.8542 24.8398V27.7198H63.8622V24.5038C63.8622 22.2958 62.9502 21.1918 61.1262 21.1918C59.3022 21.1918 58.3902 22.2958 58.3902 24.5038V42.8878C58.3902 45.0638 59.3022 46.1518 61.1262 46.1518C62.9502 46.1518 63.8622 45.0638 63.8622 42.8878V36.3118H61.2222V31.5118H68.8542V42.5038C68.8542 45.2238 68.1822 47.3198 66.8382 48.7918C65.4942 50.2318 63.5422 50.9518 60.9822 50.9518Z" fill="black"/>
<path d="M71.2842 16.8718H79.1082C81.8282 16.8718 83.8122 17.5118 85.0602 18.7918C86.3082 20.0398 86.9322 21.9758 86.9322 24.5998V26.6638C86.9322 30.1518 85.7802 32.3598 83.4762 33.2878V33.3838C84.7562 33.7678 85.6522 34.5518 86.1642 35.7358C86.7082 36.9198 86.9802 38.5038 86.9802 40.4878V46.3918C86.9802 47.3518 87.0122 48.1358 87.0762 48.7438C87.1402 49.3198 87.3002 49.8958 87.5562 50.4718H82.1802C81.9882 49.9278 81.8602 49.4158 81.7962 48.9358C81.7322 48.4558 81.7002 47.5918 81.7002 46.3438V40.1998C81.7002 38.6638 81.4442 37.5918 80.9322 36.9838C80.4522 36.3758 79.6042 36.0718 78.3882 36.0718H76.5642V50.4718H71.2842V16.8718ZM78.4842 31.2718C79.5402 31.2718 80.3242 30.9998 80.8362 30.4558C81.3802 29.9118 81.6522 28.9998 81.6522 27.7198V25.1278C81.6522 23.9118 81.4282 23.0318 80.9802 22.4878C80.5642 21.9438 79.8922 21.6718 78.9642 21.6718H76.5642V31.2718H78.4842Z" fill="black"/>
<path d="M93.7636 16.8718H100.916L106.388 50.4718H101.108L100.148 43.7998V43.8958H94.1476L93.1876 50.4718H88.2916L93.7636 16.8718ZM99.5236 39.3358L97.1716 22.7278H97.0756L94.7716 39.3358H99.5236Z" fill="black"/>
<path d="M107.989 16.8718H115.765C118.389 16.8718 120.357 17.5758 121.669 18.9838C122.981 20.3918 123.637 22.4558 123.637 25.1758V28.4878C123.637 31.2078 122.981 33.2718 121.669 34.6798C120.357 36.0878 118.389 36.7918 115.765 36.7918H113.269V50.4718H107.989V16.8718ZM115.765 31.9918C116.629 31.9918 117.269 31.7518 117.685 31.2718C118.133 30.7918 118.357 29.9758 118.357 28.8238V24.8398C118.357 23.6878 118.133 22.8718 117.685 22.3918C117.269 21.9118 116.629 21.6718 115.765 21.6718H113.269V31.9918H115.765Z" fill="black"/>
<path d="M125.545 16.8718H130.825V30.5518H136.489V16.8718H141.769V50.4718H136.489V35.3518H130.825V50.4718H125.545V16.8718Z" fill="black"/>
<path d="M3.57608 8.556C3.02408 8.556 2.52808 8.46 2.08808 8.268C1.65608 8.068 1.31608 7.796 1.06808 7.452C0.820082 7.1 0.692082 6.696 0.684082 6.24H1.84808C1.88808 6.632 2.04808 6.964 2.32808 7.236C2.61608 7.5 3.03208 7.632 3.57608 7.632C4.09608 7.632 4.50408 7.504 4.80008 7.248C5.10408 6.984 5.25608 6.648 5.25608 6.24C5.25608 5.92 5.16808 5.66 4.99208 5.46C4.81608 5.26 4.59608 5.108 4.33208 5.004C4.06808 4.9 3.71208 4.788 3.26408 4.668C2.71208 4.524 2.26808 4.38 1.93208 4.236C1.60408 4.092 1.32008 3.868 1.08008 3.564C0.848082 3.252 0.732082 2.836 0.732082 2.316C0.732082 1.86 0.848082 1.456 1.08008 1.104C1.31208 0.752 1.63608 0.48 2.05208 0.288C2.47608 0.096 2.96008 0 3.50408 0C4.28808 0 4.92808 0.196 5.42408 0.588C5.92808 0.98 6.21208 1.5 6.27608 2.148H5.07608C5.03608 1.828 4.86808 1.548 4.57208 1.308C4.27608 1.06 3.88408 0.936 3.39608 0.936C2.94008 0.936 2.56808 1.056 2.28008 1.296C1.99208 1.528 1.84808 1.856 1.84808 2.28C1.84808 2.584 1.93208 2.832 2.10008 3.024C2.27608 3.216 2.48808 3.364 2.73608 3.468C2.99208 3.564 3.34808 3.676 3.80408 3.804C4.35608 3.956 4.80008 4.108 5.13608 4.26C5.47208 4.404 5.76008 4.632 6.00008 4.944C6.24008 5.248 6.36008 5.664 6.36008 6.192C6.36008 6.6 6.25208 6.984 6.03608 7.344C5.82008 7.704 5.50008 7.996 5.07608 8.22C4.65208 8.444 4.15208 8.556 3.57608 8.556Z" fill="black"/>
<path d="M19.4583 0.108V8.472H18.3663V0.108H19.4583Z" fill="black"/>
<path d="M38.2946 8.472H37.2026L32.8106 1.812V8.472H31.7186V0.0960002H32.8106L37.2026 6.744V0.0960002H38.2946V8.472Z" fill="black"/>
<path d="M55.4993 6.612H51.8513L51.1793 8.472H50.0273L53.0513 0.156H54.3113L57.3233 8.472H56.1713L55.4993 6.612ZM55.1873 5.724L53.6753 1.5L52.1633 5.724H55.1873Z" fill="black"/>
<path d="M70.1085 0.108V5.4C70.1085 6.144 70.2885 6.696 70.6485 7.056C71.0165 7.416 71.5245 7.596 72.1725 7.596C72.8125 7.596 73.3125 7.416 73.6725 7.056C74.0405 6.696 74.2245 6.144 74.2245 5.4V0.108H75.3165V5.388C75.3165 6.084 75.1765 6.672 74.8965 7.152C74.6165 7.624 74.2365 7.976 73.7565 8.208C73.2845 8.44 72.7525 8.556 72.1605 8.556C71.5685 8.556 71.0325 8.44 70.5525 8.208C70.0805 7.976 69.7045 7.624 69.4245 7.152C69.1525 6.672 69.0165 6.084 69.0165 5.388V0.108H70.1085Z" fill="black"/>
<rect x="145" y="16.4719" width="5" height="34" fill="#FBD243"/>
</svg>
